<?xml version="1.0" encoding="UTF-8"?>
<svg id="Ebene_1" data-name="Ebene 1" xmlns="http://www.w3.org/2000/svg" version="1.1" xmlns:xlink="http://www.w3.org/1999/xlink" viewBox="0 0 158 68">
  <defs>
    <style>
      .cls-1 {
        fill: #ed800a;
        stroke-width: 0px;
      }

      .cls-2 {
        fill: url(#Unbenannter_Verlauf_6);
      }
    </style>
    <linearGradient id="Unbenannter_Verlauf_6" data-name="Unbenannter Verlauf 6" x1="84" y1="34" x2="158" y2="34" gradientUnits="userSpaceOnUse">
      <stop offset="0" stop-color="#ed800a"/>
      <stop offset="1" stop-color="#e3005d"/>
    </linearGradient>
  </defs>
  <g>
    <path class="cls-1" d="M71.6,49.3c.6-.3,1-.6,1.4-1.1.3-.5.5-1,.5-1.6s-.2-1.3-.7-1.9-1.1-.9-2-1.2l-1.7-.5c-.2,0-.4-.1-.6-.2-.2,0-.4-.2-.5-.4-.1-.2-.2-.4-.2-.6,0-.4.1-.7.4-.9.3-.2.7-.3,1.1-.3s1.1.1,1.5.4c.4.3.8.7,1,1.2l1.7-.8c-.3-.8-.8-1.5-1.6-2-.8-.5-1.6-.7-2.6-.7s-1.4.1-1.9.4c-.6.3-1,.6-1.3,1.1-.3.5-.5,1-.5,1.7s.2,1.3.7,1.8c.4.5,1.1.9,2,1.2l1.7.5c.2,0,.4.1.7.3.2.1.4.2.5.4.1.2.2.4.2.6,0,.4-.2.7-.5,1-.3.2-.7.3-1.3.3s-1.2-.2-1.7-.5c-.5-.3-.9-.8-1.2-1.4l-1.7.8c.3.9.9,1.6,1.7,2.1.8.5,1.7.8,2.8.8s1.5-.1,2-.4"/>
    <path class="cls-1" d="M102.1,49.5v-6.1c0-.8.2-1.4.7-1.9.4-.5,1-.7,1.8-.7h.9v-2h-.6c-.7,0-1.3.2-1.9.5-.5.3-.9.8-1.1,1.5l.2.3v-2.1h-2.1v10.5h2.2Z"/>
    <path class="cls-1" d="M83.4,44.2c0,.6-.1,1.1-.4,1.6-.3.5-.6.9-1.1,1.1-.5.3-1,.4-1.6.4s-1.1-.1-1.6-.4c-.5-.3-.8-.7-1.1-1.1-.3-.5-.4-1-.4-1.6s.1-1.1.4-1.6c.3-.5.6-.9,1.1-1.1.5-.3,1-.4,1.6-.4s1.1.1,1.6.4c.5.3.8.7,1.1,1.1.3.5.4,1,.4,1.6M83.4,49.3h2.2v-5s0-5.4-5.6-5.4-1.9.2-2.6.7c-.8.5-1.4,1.1-1.8,1.9-.4.8-.7,1.7-.7,2.7s.2,1.9.7,2.7c.4.8,1.1,1.4,1.8,1.9.8.5,1.7.7,2.7.7s1.5-.2,2.2-.5c.6-.4,1.1-.9,1.1-.9v1.3Z"/>
    <path class="cls-1" d="M95.6,44.2c0,.6-.1,1.1-.4,1.6-.3.5-.6.9-1.1,1.1-.5.3-1,.4-1.6.4s-1.1-.1-1.6-.4c-.5-.3-.8-.7-1.1-1.1-.3-.5-.4-1-.4-1.6s.1-1.1.4-1.6c.3-.5.6-.9,1.1-1.1.5-.3,1-.4,1.6-.4s1.1.1,1.6.4c.5.3.8.7,1.1,1.1.3.5.4,1,.4,1.6M95.6,49.3h2.2v-5s0-5.4-5.6-5.4-1.9.2-2.6.7c-.8.5-1.4,1.1-1.8,1.9-.4.8-.7,1.7-.7,2.7s.2,1.9.7,2.7c.4.8,1.1,1.4,1.8,1.9.8.5,1.7.7,2.7.7s1.5-.2,2.2-.5c.6-.4,1.1-.9,1.1-.9v1.3Z"/>
    <path class="cls-1" d="M8.8,28c0,.7-.1,1.3-.4,1.8-.3.5-.7.9-1.1,1.2-.5.3-1,.5-1.6.5s-1.2-.1-1.7-.5c-.5-.3-.9-.7-1.1-1.2s-.4-1.1-.4-1.8.1-1.3.4-1.8c.3-.5.7-.9,1.2-1.2.5-.3,1.1-.5,1.7-.5s1.2.2,1.6.5c.5.3.9.7,1.1,1.2.3.5.4,1.1.4,1.8M11,28v-9.6h-2.2v5.4s-.5-.6-1.2-.9c-.7-.3-1.4-.5-2.2-.5s-1.9.2-2.7.7c-.8.5-1.4,1.1-1.9,2-.5.8-.7,1.8-.7,2.8s.2,2,.7,2.8c.5.8,1.1,1.5,1.9,2,.8.5,1.7.7,2.7.7,5.9,0,5.7-5.5,5.7-5.5M13.8,21.2h2.2v-2.6h-2.2v2.6ZM13.8,33.3h2.2v-10.6h-2.2v10.6ZM26.8,27.7c0,.6-.1,1.1-.4,1.6-.3.5-.6.9-1.1,1.1-.5.3-1,.4-1.6.4s-1.1-.1-1.6-.4c-.5-.3-.8-.7-1.1-1.1-.3-.5-.4-1-.4-1.6s.1-1.1.4-1.6c.3-.5.6-.9,1.1-1.1.5-.3,1-.4,1.6-.4s1.1.1,1.6.4c.5.3.8.7,1.1,1.1.3.5.4,1,.4,1.6M28.4,35.3c.4-.7.7-1.5.7-2.5v-5s0-5.4-5.6-5.4-1.9.2-2.6.7c-.8.5-1.4,1.1-1.8,1.9-.4.8-.7,1.7-.7,2.7s.2,1.9.7,2.7c.4.8,1.1,1.4,1.8,1.9.8.5,1.7.7,2.7.7s1.5-.2,2.2-.5c.6-.4,1.1-.9,1.1-.9v1.3c0,.6-.1,1.1-.4,1.5-.3.4-.6.7-1,.9-.4.2-.9.3-1.5.3s-1.3-.2-1.8-.5c-.5-.3-.8-.7-1-1.2l-2,.8c.2.6.6,1.1,1,1.5.5.4,1,.8,1.7,1,.7.2,1.4.4,2.1.4s1.9-.2,2.7-.6c.8-.4,1.4-1,1.8-1.7M31.8,21.2h2.2v-2.6h-2.2v2.6ZM31.8,33.3h2.2v-10.6h-2.2v10.6ZM41.5,33.4c.2,0,.4,0,.6,0v-1.9c-.1,0-.2,0-.4,0-.1,0-.2,0-.4,0-.4,0-.8,0-1-.2-.3-.1-.5-.3-.6-.6-.1-.3-.2-.6-.2-.9v-5h2.4v-2h-2.4v-2.4h-2.2v9.6c0,1.1.3,2,.9,2.6.6.6,1.5.9,2.6.9s.4,0,.6,0M51.7,28.2c0,.6-.1,1.1-.4,1.6-.3.5-.6.9-1.1,1.1-.5.3-1,.4-1.6.4s-1.1-.1-1.6-.4c-.5-.3-.8-.7-1.1-1.1-.3-.5-.4-1-.4-1.6s.1-1.1.4-1.6c.3-.5.6-.9,1.1-1.1.5-.3,1-.4,1.6-.4s1.1.1,1.6.4c.5.3.8.7,1.1,1.1.3.5.4,1,.4,1.6M51.7,33.3h2.2v-5s0-5.4-5.6-5.4-1.9.2-2.6.7c-.8.5-1.4,1.1-1.8,1.9-.4.8-.7,1.7-.7,2.7s.2,1.9.7,2.7c.4.8,1.1,1.4,1.8,1.9.8.5,1.7.7,2.7.7s1.5-.2,2.2-.5c.6-.4,1.1-.9,1.1-.9v1.3ZM56.4,33.3h2.2v-14.9h-2.2v14.9ZM72.8,33.3l3.7-10.6h-2.4l-2.4,7.3-2.4-7.3h-2l-2.4,7.2-2.4-7.2h-2.4l3.6,10.6h2l2.5-7.5,2.5,7.5h2ZM85.1,26.9h-5.6c0-.3.1-.6.2-.8.2-.5.6-1,1.1-1.3s1-.4,1.5-.4,1.1.1,1.5.4c.4.3.8.7,1,1.2.1.3.2.6.2.9M87.5,28.1c0-.2,0-.4,0-.5,0-.7-.1-1.3-.3-2-.2-.6-.6-1.2-1-1.6-.4-.5-1-.9-1.6-1.1-.6-.3-1.3-.4-2.2-.4s-1.9.2-2.7.7c-.8.5-1.4,1.1-1.9,2-.5.8-.7,1.8-.7,2.8s.2,2,.7,2.8c.5.8,1.1,1.5,1.9,2,.8.5,1.7.7,2.8.7s1.4-.1,2-.3c.6-.2,1.1-.5,1.6-.9.4-.4.8-.8,1-1.3l-1.8-.9c-.3.5-.6.8-1.1,1.1-.4.3-1,.4-1.6.4s-1.2-.2-1.7-.5c-.5-.3-.9-.7-1.1-1.3-.3-.5-.4-1.2-.4-1.2h7.9c0-.2,0-.3,0-.5M94.5,24.6h.9v-2h-.6c-.7,0-1.4.2-1.9.5-.4.2-.7.6-.9,1v-1.4h-2.1v10.6h2.2v-6.1c0-.8.2-1.5.7-1.9.5-.5,1-.7,1.8-.7M102.6,26.9l4-4.3h-2.8l-4.4,4.6v-8.8h-2.2v14.9h2.2v-3.2l1.6-1.7,3.2,4.9h2.6l-4.2-6.4Z"/>
  </g>
  <path class="cls-2" d="M113.8,34c0,5.6,4.6,10.2,10.2,10.2s10.2-4.6,10.2-10.2-4.6-10.2-10.2-10.2-10.2,4.6-10.2,10.2M90.7,0c-3.7,0-6.7,3.1-6.7,6.8s3,6.8,6.8,6.8h33.2c11.3,0,20.4,9.1,20.4,20.4s-9.1,20.4-20.4,20.4h-16.7c-3.6.2-6.4,3.2-6.4,6.8s2.9,6.6,6.4,6.8h0s16.7,0,16.7,0c18.8,0,34-15.2,34-34S142.9,0,124.2,0h-33.5Z"/>
</svg>