<?xml version="1.0" encoding="UTF-8"?>
<svg id="Ebene_1" data-name="Ebene 1" xmlns="http://www.w3.org/2000/svg" version="1.1" viewBox="0 0 200 86">
  <defs>
    <style>
      .cls-1, .cls-2 {
        fill: #fff;
      }

      .cls-2 {
        stroke-width: 0px;
      }
    </style>
  </defs>
  <g>
    <path class="cls-2" d="M90.7,62.3c.7-.3,1.3-.8,1.7-1.4.4-.6.6-1.3.6-2.1s-.3-1.7-.9-2.4-1.4-1.1-2.5-1.5l-2.2-.6c-.3,0-.5-.2-.8-.3-.3-.1-.5-.3-.6-.5-.2-.2-.2-.5-.2-.8,0-.5.2-.8.5-1.1.4-.3.8-.4,1.5-.4s1.3.2,1.9.6c.6.4,1,.9,1.2,1.5l2.2-1c-.4-1.1-1.1-1.9-2-2.5-1-.6-2-.9-3.2-.9s-1.7.2-2.5.5c-.7.3-1.3.8-1.7,1.4-.4.6-.6,1.3-.6,2.1s.3,1.7.8,2.3c.6.7,1.4,1.1,2.6,1.5l2.1.6c.3,0,.6.2.8.3.3.1.5.3.7.5.2.2.3.5.3.8,0,.5-.2.9-.6,1.2-.4.3-.9.4-1.6.4s-1.5-.2-2.1-.7c-.6-.4-1.1-1-1.5-1.8l-2.1,1c.4,1.1,1.1,2,2.1,2.7,1,.7,2.2,1,3.6,1s1.8-.2,2.6-.5"/>
    <path class="cls-2" d="M129.2,62.6v-7.7c0-1,.3-1.8.8-2.4.6-.6,1.3-.9,2.2-.9h1.2v-2.5h-.8c-.9,0-1.7.2-2.4.6-.7.4-1.1,1-1.4,1.9l.2.4v-2.7h-2.7v13.3h2.8Z"/>
    <path class="cls-2" d="M105.6,56c0,.8-.2,1.4-.5,2-.3.6-.8,1.1-1.4,1.4-.6.4-1.2.5-2,.5s-1.4-.2-2-.5c-.6-.4-1.1-.8-1.4-1.5-.3-.6-.5-1.3-.5-2s.2-1.4.5-2.1c.3-.6.8-1.1,1.4-1.5.6-.4,1.3-.5,2-.5s1.4.2,2,.5c.6.4,1,.8,1.4,1.5.3.6.5,1.3.5,2.1M105.6,62.4h2.8v-6.3s.1-6.8-7-6.8-2.4.3-3.3.9c-1,.6-1.8,1.4-2.3,2.4-.6,1-.8,2.1-.8,3.4s.3,2.4.8,3.4c.6,1,1.3,1.8,2.3,2.4,1,.6,2.1.9,3.4.9s1.9-.2,2.8-.7c.8-.4,1.4-1.2,1.4-1.2v1.7Z"/>
    <path class="cls-2" d="M120.9,56c0,.8-.2,1.4-.5,2-.3.6-.8,1.1-1.4,1.4-.6.4-1.2.5-2,.5s-1.4-.2-2-.5c-.6-.4-1.1-.8-1.4-1.5-.3-.6-.5-1.3-.5-2s.2-1.4.5-2.1c.3-.6.8-1.1,1.4-1.5.6-.4,1.3-.5,2-.5s1.4.2,2,.5c.6.4,1,.8,1.4,1.5.3.6.5,1.3.5,2.1M120.9,62.4h2.8v-6.3s.1-6.8-7-6.8-2.4.3-3.3.9c-1,.6-1.8,1.4-2.3,2.4-.6,1-.8,2.1-.8,3.4s.3,2.4.8,3.4c.6,1,1.3,1.8,2.3,2.4,1,.6,2.1.9,3.4.9s1.9-.2,2.8-.7c.8-.4,1.4-1.2,1.4-1.2v1.7Z"/>
    <path class="cls-2" d="M11.1,35.4c0,.8-.2,1.6-.5,2.3-.4.7-.8,1.2-1.5,1.6-.6.4-1.3.6-2.1.6s-1.5-.2-2.1-.6c-.6-.4-1.1-.9-1.5-1.6s-.5-1.4-.5-2.3.2-1.6.5-2.2c.3-.7.8-1.2,1.5-1.6.6-.4,1.3-.6,2.1-.6s1.5.2,2.1.6c.6.4,1.1.9,1.5,1.6.4.7.5,1.4.5,2.2M13.9,35.4v-12.1h-2.8v6.9s-.7-.8-1.5-1.2c-.8-.4-1.8-.6-2.8-.6s-2.4.3-3.4.9c-1,.6-1.8,1.4-2.4,2.5-.6,1.1-.9,2.3-.9,3.6s.3,2.5.9,3.6c.6,1.1,1.4,1.9,2.4,2.5,1,.6,2.2.9,3.4.9,7.4,0,7.2-7,7.2-7M17.4,26.8h2.8v-3.2h-2.8v3.2ZM17.4,42.1h2.8v-13.4h-2.8v13.4ZM33.9,35c0,.8-.2,1.4-.5,2-.3.6-.8,1.1-1.4,1.4-.6.4-1.2.5-2,.5s-1.4-.2-2-.5c-.6-.4-1.1-.8-1.4-1.5-.3-.6-.5-1.3-.5-2s.2-1.4.5-2.1c.3-.6.8-1.1,1.4-1.5.6-.4,1.3-.5,2-.5s1.4.2,2,.5c.6.4,1,.8,1.4,1.5.3.6.5,1.3.5,2.1M35.9,44.6c.6-.9.8-2,.8-3.1v-6.3s.1-6.8-7-6.8-2.4.3-3.3.9c-1,.6-1.8,1.4-2.3,2.4-.6,1-.8,2.1-.8,3.4s.3,2.4.8,3.4c.6,1,1.3,1.8,2.3,2.4,1,.6,2.1.9,3.4.9s1.9-.2,2.8-.7c.8-.4,1.4-1.2,1.4-1.2v1.7c0,.7-.2,1.4-.5,1.9-.3.5-.8.9-1.3,1.2-.6.3-1.2.4-1.9.4s-1.7-.2-2.3-.6c-.6-.4-1-.9-1.3-1.6l-2.6,1.1c.3.7.7,1.4,1.3,1.9.6.6,1.3,1,2.1,1.3.8.3,1.7.5,2.7.5s2.4-.3,3.4-.8c1-.5,1.8-1.3,2.3-2.2M40.3,26.8h2.8v-3.2h-2.8v3.2ZM40.3,42.1h2.8v-13.4h-2.8v13.4ZM52.6,42.2c.3,0,.5,0,.8,0v-2.4c-.1,0-.3,0-.5,0-.2,0-.3,0-.4,0-.5,0-1,0-1.3-.3-.3-.2-.6-.4-.7-.7-.1-.3-.2-.7-.2-1.2v-6.4h3.1v-2.6h-3.1v-3.1h-2.8v12.1c0,1.4.4,2.6,1.2,3.3.8.8,1.9,1.2,3.3,1.2s.5,0,.7,0M65.4,35.7c0,.8-.2,1.4-.5,2-.3.6-.8,1.1-1.4,1.4-.6.4-1.2.5-2,.5s-1.4-.2-2-.5c-.6-.4-1.1-.8-1.4-1.5-.3-.6-.5-1.3-.5-2s.2-1.4.5-2.1c.3-.6.8-1.1,1.4-1.5.6-.4,1.3-.5,2-.5s1.4.2,2,.5c.6.4,1,.8,1.4,1.5.3.6.5,1.3.5,2.1M65.4,42.2h2.8v-6.3s.1-6.8-7-6.8-2.4.3-3.3.9c-1,.6-1.8,1.4-2.3,2.4-.6,1-.8,2.1-.8,3.4s.3,2.4.8,3.4c.6,1,1.3,1.8,2.3,2.4,1,.6,2.1.9,3.4.9s1.9-.2,2.8-.7c.8-.4,1.4-1.2,1.4-1.2v1.7ZM71.4,42.1h2.8v-18.8h-2.8v18.8ZM92.2,42.1l4.6-13.4h-3l-3,9.2-3.1-9.2h-2.6l-3.1,9.1-3-9.1h-3l4.6,13.4h2.6l3.2-9.5,3.2,9.5h2.5ZM107.8,34h-7.1c0-.4.2-.7.3-1.1.3-.7.8-1.2,1.3-1.6s1.2-.6,2-.6,1.4.2,2,.6c.6.4,1,.9,1.2,1.5.1.4.2.7.2,1.2M110.7,35.6c0-.2,0-.5,0-.7,0-.9-.1-1.7-.4-2.5-.3-.8-.7-1.5-1.3-2.1-.5-.6-1.2-1.1-2-1.4s-1.7-.5-2.7-.5-2.4.3-3.4.9c-1,.6-1.8,1.4-2.4,2.5-.6,1-.9,2.2-.9,3.6s.3,2.5.9,3.6c.6,1.1,1.4,1.9,2.4,2.5,1,.6,2.2.9,3.6.9s1.8-.1,2.5-.4c.8-.3,1.4-.7,2-1.2.6-.5,1-1.1,1.2-1.7l-2.3-1.1c-.3.6-.8,1.1-1.4,1.4-.6.4-1.3.5-2.1.5s-1.5-.2-2.1-.6c-.6-.4-1.1-.9-1.4-1.6-.3-.7-.5-1.6-.5-1.6h10.1c0-.2,0-.4,0-.6M119.6,31.1h1.2v-2.6h-.8c-.9,0-1.7.2-2.4.6-.5.3-.9.7-1.2,1.3v-1.7h-2.7v13.4h2.8v-7.7c0-1,.3-1.9.9-2.4.6-.6,1.3-.9,2.2-.9M129.8,34.1l5.1-5.4h-3.5l-5.6,5.8v-11.2h-2.8v18.8h2.8v-4.1l2-2.1,4.1,6.2h3.3l-5.3-8Z"/>
  </g>
  <path class="cls-1" d="M144.1,43c0,7.1,5.8,12.9,12.9,12.9s12.9-5.8,12.9-12.9-5.8-12.9-12.9-12.9-12.9,5.8-12.9,12.9M114.8,0c-4.7,0-8.5,3.9-8.5,8.6s3.9,8.6,8.6,8.6h42c14.3,0,25.8,11.6,25.8,25.8s-11.6,25.8-25.8,25.8h-21.1c-4.5.3-8.2,4-8.2,8.6s3.6,8.3,8.2,8.6h0s21.1,0,21.1,0c23.8,0,43-19.3,43-43S180.9.1,157.2,0h-42.4Z"/>
</svg>