<?xml version="1.0" encoding="UTF-8"?>
<svg xmlns="http://www.w3.org/2000/svg" version="1.1" viewBox="0 0 1325 472">
  <defs>
    <style>
      .cls-1 {
        fill: #f93822;
      }

      .cls-1, .cls-2 {
        stroke-width: 0px;
      }

      .cls-3 {
        display: none;
      }

      .cls-2 {
        fill: #003a42;
      }
    </style>
  </defs>
  <g id="KEW_Logo_RGB" data-name="KEW Logo RGB">
    <g id="KEW">
      <path class="cls-2" d="M704.2,46l27.8-41.6h-57.3c-29.5,59.9-76,86.4-122.8,86.4V4.4h-43v129.8h30.8c73.8,0,123.7-26.6,164.5-88.2Z"/>
      <path class="cls-2" d="M843.6,47.8h29.1c24.7,0,36.9,15.6,36.9,44.3v42.5h-259.8v43.4h305.3v-93.4c0-50.9-27-79-76.8-80.2h0c0-.1-36.9-.1-36.9-.1-52.1,0-80.3,28.2-80.3,80.3v7.4h45.6c0-28.6,12.2-44.3,36.9-44.2h0Z"/>
      <path class="cls-2" d="M806.7,220.5h-45.6v7.4c0,52.1,28.2,80.3,80.3,80.3h115v-43.4h-112.8c-24.7,0-36.9-15.7-36.9-44.3h0Z"/>
      <path class="cls-2" d="M1281.6,4.4l-33.4,264.7h-11.3l-26-210.5C1206.1,19.5,1188.8,0,1160.1,0s-46,19.5-50.8,58.6l-26,210.5h-11.3L1038.6,4.4h-43.4l31.7,249.5c4.8,38.6,22.1,58.6,50.8,58.6s46-19.5,50.8-58.6l26-210.5h11.3l26,210.5c4.8,39.1,22.1,58.6,50.8,58.6s46-20,50.8-58.6l31.6-249.5h-43.4Z"/>
      <path class="cls-2" d="M539.6,178.4h-30.8v129.8h43v-86.4c46.9,0,93.3,26.5,122.8,86.4h57.3l-27.8-41.7c-40.8-61.6-90.7-88.1-164.5-88.1Z"/>
    </g>
    <g id="Arrow">
      <path class="cls-1" d="M195.2,46.1l27.8-41.7h-57.3c-29.5,59.9-76,86.4-122.8,86.4H0v43.4h30.8c73.8,0,123.7-26.4,164.4-88.1h0Z"/>
      <path class="cls-1" d="M446,134.7H140.8v43.4h305.3v-43.4Z"/>
      <path class="cls-1" d="M30.7,178.4H0v42.6l43,.8c46.9,0,93.3,26.5,122.8,86.4h57.3l-27.8-41.7c-40.8-61.6-90.7-88.1-164.4-88.1h0Z"/>
    </g>
    <g id="NK">
      <path class="cls-2" d="M508.9,470.7v-78.1h15.4l32.4,51.4h.7v-51.4h14.4v78.1h-15.3l-32.4-51.4h-.7v51.4h-14.5Z"/>
      <path class="cls-2" d="M612,472c-16.7,0-28.8-12.4-28.8-29.4s11.8-29.6,28.6-29.6,27,10.8,27,27.8,0,3.7-.3,5.4h-39.9c.8,8.1,6,13.3,13.3,13.3s9.9-2.7,11.1-6.6h15.2c-1.8,11.1-12.7,19.1-26.2,19.1ZM598.9,436.1h24.4c-.7-6.4-5-10.7-11.4-10.7s-11.5,4.3-13,10.7Z"/>
      <path class="cls-2" d="M670.7,472c-12.2,0-21.2-8.7-21.2-22.1v-35.5h14.8v32.7c0,7.3,4,11.6,10.3,11.6s10.9-5,10.9-12.4v-31.9h14.8v56.2h-12.9l-.7-6h-.7c-3.4,4.7-8.5,7.4-15.3,7.4Z"/>
      <path class="cls-2" d="M750.5,438.7c0-7.7-4.1-12.3-10.8-12.3s-11.5,5-11.5,12.9v31.2h-14.8v-56.2h13l.7,6h.7c3.3-4.6,9.2-7.4,16.3-7.4,12.9,0,21.3,8.8,21.3,22.7v34.9h-14.8v-31.8h-.1Z"/>
      <path class="cls-2" d="M778.5,470.7v-80.4h14.8v42.4h.7l18-18.3h18.6l-20.7,21.2,20.7,35h-16.8l-14.3-24.6-6.2,6.2v18.3h-14.8v.2Z"/>
      <path class="cls-2" d="M839.3,470.7v-56.2h14.8v56.2h-14.8ZM846.8,407.5c-5.1,0-9.2-4-9.2-9.2s4.1-9.2,9.2-9.2,9,4,9,9.2-4,9.2-9,9.2Z"/>
      <path class="cls-2" d="M867.4,470.7v-56.2h12.9l.9,8.1h.7c2.8-5.6,8.6-8.8,15.9-8.8s2.6.1,3.9.3v15.2c-1.4-.2-2.5-.2-4-.2-9.9,0-15.4,6.5-15.4,17.7v23.9h-14.9Z"/>
      <path class="cls-2" d="M936.2,472c-17,0-28.8-12.4-28.8-29.5s11.9-29.5,28.8-29.5,25.5,8.9,26.6,21.8h-15.4c-1-4.9-5.4-8.3-11.1-8.3s-13.3,6.6-13.3,16,5.4,16.1,13.3,16.1,10.1-3.3,11.1-8.4h15.4c-1.1,13-12.1,21.8-26.6,21.8Z"/>
      <path class="cls-2" d="M1010.1,438.7c0-7.7-4.1-12.3-10.8-12.3s-11.5,5-11.5,12.9v31.2h-14.8v-80.4h14.8v30.1h.7c3.1-4.5,8.3-7.4,15.1-7.4,12.9,0,21.3,8.8,21.3,22.7v34.9h-14.8v-31.7h0Z"/>
      <path class="cls-2" d="M1064.9,472c-16.7,0-28.8-12.4-28.8-29.4s11.8-29.6,28.6-29.6,27,10.8,27,27.8,0,3.7-.3,5.4h-39.9c.8,8.1,5.9,13.3,13.3,13.3s9.9-2.7,11.1-6.6h15.2c-1.8,11.1-12.7,19.1-26.2,19.1ZM1051.8,436.1h24.4c-.7-6.4-5-10.7-11.4-10.7s-11.5,4.3-13,10.7Z"/>
      <path class="cls-2" d="M1140,438.7c0-7.7-4.1-12.3-10.8-12.3s-11.5,5-11.5,12.9v31.2h-14.8v-56.2h12.9l.7,6h.7c3.3-4.6,9.2-7.4,16.3-7.4,12.9,0,21.3,8.8,21.3,22.7v34.9h-14.8v-31.8h0Z"/>
    </g>
  </g>
  <g id="GEW" class="cls-3">
    <g id="KEW-2" data-name="KEW">
      <path class="cls-2" d="M843.6,47.8h29.1c24.7,0,36.9,15.6,36.9,44.3v42.5h-219.1c0,0,0,43.4,0,43.4h264.6v-93.4c0-50.9-27-79-76.8-80.2h0c0-.1-36.9-.1-36.9-.1-52.1,0-80.3,28.2-80.3,80.3v7.4h45.6c0-28.6,12.2-44.3,36.9-44.2h0Z"/>
      <path class="cls-2" d="M806.7,220.5h-45.6v7.4c0,52.1,28.2,80.3,80.3,80.3h115v-43.4h-112.8c-24.7,0-36.9-15.7-36.9-44.3h0Z"/>
      <path class="cls-2" d="M1281.6,4.4l-33.4,264.7h-11.3l-26-210.5C1206.1,19.5,1188.8,0,1160.1,0s-46,19.5-50.8,58.6l-26,210.5h-11.3L1038.6,4.4h-43.4l31.7,249.5c4.8,38.6,22.1,58.6,50.8,58.6s46-19.5,50.8-58.6l26-210.5h11.3l26,210.5c4.8,39.1,22.1,58.6,50.8,58.6s46-20,50.8-58.6l31.6-249.5h-43.4Z"/>
    </g>
    <g id="Arrow-2" data-name="Arrow">
      <path class="cls-1" d="M195.2,46.1l27.8-41.7h-57.3c-29.5,59.9-76,86.4-122.8,86.4H0v43.4h30.8c73.8,0,123.7-26.4,164.4-88.1h0Z"/>
      <path class="cls-1" d="M446,134.7H140.8v43.4h305.3v-43.4Z"/>
      <path class="cls-1" d="M30.7,178.4H0v42.6l43,.8c46.9,0,93.3,26.5,122.8,86.4h57.3l-27.8-41.7c-40.8-61.6-90.7-88.1-164.4-88.1h0Z"/>
    </g>
    <g id="NK-2" data-name="NK">
      <path class="cls-2" d="M508.9,470.7v-78.1h15.4l32.4,51.4h.7v-51.4h14.4v78.1h-15.3l-32.4-51.4h-.7v51.4h-14.5Z"/>
      <path class="cls-2" d="M612,472c-16.7,0-28.8-12.4-28.8-29.4s11.8-29.6,28.6-29.6,27,10.8,27,27.8,0,3.7-.3,5.4h-39.9c.8,8.1,6,13.3,13.3,13.3s9.9-2.7,11.1-6.6h15.2c-1.8,11.1-12.7,19.1-26.2,19.1ZM598.9,436.1h24.4c-.7-6.4-5-10.7-11.4-10.7s-11.5,4.3-13,10.7Z"/>
      <path class="cls-2" d="M670.7,472c-12.2,0-21.2-8.7-21.2-22.1v-35.5h14.8v32.7c0,7.3,4,11.6,10.3,11.6s10.9-5,10.9-12.4v-31.9h14.8v56.2h-12.9l-.7-6h-.7c-3.4,4.7-8.5,7.4-15.3,7.4Z"/>
      <path class="cls-2" d="M750.5,438.7c0-7.7-4.1-12.3-10.8-12.3s-11.5,5-11.5,12.9v31.2h-14.8v-56.2h13l.7,6h.7c3.3-4.6,9.2-7.4,16.3-7.4,12.9,0,21.3,8.8,21.3,22.7v34.9h-14.8v-31.8h-.1Z"/>
      <path class="cls-2" d="M778.5,470.7v-80.4h14.8v42.4h.7l18-18.3h18.6l-20.7,21.2,20.7,35h-16.8l-14.3-24.6-6.2,6.2v18.3h-14.8v.2Z"/>
      <path class="cls-2" d="M839.3,470.7v-56.2h14.8v56.2h-14.8ZM846.8,407.5c-5.1,0-9.2-4-9.2-9.2s4.1-9.2,9.2-9.2,9,4,9,9.2-4,9.2-9,9.2Z"/>
      <path class="cls-2" d="M867.4,470.7v-56.2h12.9l.9,8.1h.7c2.8-5.6,8.6-8.8,15.9-8.8s2.6.1,3.9.3v15.2c-1.4-.2-2.5-.2-4-.2-9.9,0-15.4,6.5-15.4,17.7v23.9h-14.9Z"/>
      <path class="cls-2" d="M936.2,472c-17,0-28.8-12.4-28.8-29.5s11.9-29.5,28.8-29.5,25.5,8.9,26.6,21.8h-15.4c-1-4.9-5.4-8.3-11.1-8.3s-13.3,6.6-13.3,16,5.4,16.1,13.3,16.1,10.1-3.3,11.1-8.4h15.4c-1.1,13-12.1,21.8-26.6,21.8Z"/>
      <path class="cls-2" d="M1010.1,438.7c0-7.7-4.1-12.3-10.8-12.3s-11.5,5-11.5,12.9v31.2h-14.8v-80.4h14.8v30.1h.7c3.1-4.5,8.3-7.4,15.1-7.4,12.9,0,21.3,8.8,21.3,22.7v34.9h-14.8v-31.7h0Z"/>
      <path class="cls-2" d="M1064.9,472c-16.7,0-28.8-12.4-28.8-29.4s11.8-29.6,28.6-29.6,27,10.8,27,27.8,0,3.7-.3,5.4h-39.9c.8,8.1,5.9,13.3,13.3,13.3s9.9-2.7,11.1-6.6h15.2c-1.8,11.1-12.7,19.1-26.2,19.1ZM1051.8,436.1h24.4c-.7-6.4-5-10.7-11.4-10.7s-11.5,4.3-13,10.7Z"/>
      <path class="cls-2" d="M1140,438.7c0-7.7-4.1-12.3-10.8-12.3s-11.5,5-11.5,12.9v31.2h-14.8v-56.2h12.9l.7,6h.7c3.3-4.6,9.2-7.4,16.3-7.4,12.9,0,21.3,8.8,21.3,22.7v34.9h-14.8v-31.8h0Z"/>
    </g>
    <g id="Ebene_3" data-name="Ebene 3">
      <path class="cls-2" d="M684.7,220.5c-6.3,16.3-17,28.7-30.5,36.2-9.5,5.3-20.5,8.1-32.3,8.1s-14.3-1.2-20.8-3.4c-29.3-10-48.1-41.7-52.8-83.4h-42.5c7.2,77.8,52,132.3,111.9,132.3s21.5-1.8,31.2-5.3c19-6.7,34.7-19.5,44.3-36.4h2.1l3.5,36.6h33.3v-84.7h-47.3ZM714.2,48.2c-13.4-20.9-33.3-35.8-57.8-42.3-9.1-2.4-18.8-3.7-29-3.7-65.8,0-114.5,51-121.7,132.4h42.6c5.1-41.7,24.9-70.8,52.3-81.9,8.1-3.3,16.9-5,26.1-5s20.7,2.4,29.2,6.7c14.5,7.4,25,20.6,30.2,37.5h44.8c-2.9-16.4-8.6-31.2-16.7-43.8Z"/>
    </g>
  </g>
</svg>