<?xml version="1.0" encoding="UTF-8"?>
<svg id="Ebene_1" data-name="Ebene 1" xmlns="http://www.w3.org/2000/svg" version="1.1" viewBox="0 0 850 189">
  <defs>
    <style>
      .cls-1 {
        fill: #1a171b;
      }

      .cls-1, .cls-2, .cls-3, .cls-4 {
        stroke-width: 0px;
      }

      .cls-2 {
        fill: #009ee0;
      }

      .cls-3 {
        fill: #ffd500;
      }

      .cls-4 {
        fill: #7ab51d;
      }
    </style>
  </defs>
  <g>
    <path class="cls-4" d="M89.2,22.8c-3.9,2.5-6.2,6.8-6.2,11.3s0,1.3.1,1.9l.2,1.2-.9-.8c-3.6-3.2-8.7-4.2-13.3-2.7-4.6,1.6-8,5.5-8.9,10.3-.9,4.8.9,9.7,4.6,12.8l.8.7h-1c-7.3.6-13,6.9-12.5,14.3.4,7.3,6.7,13,14.1,12.7h.9s-.6.7-.6.7c-3.7,4.7-3.8,11.2-.4,16.1,3.5,4.9,9.6,6.9,15.3,5,0,0,1.3-.7,1.3-.7.8-.4,1.7-.4,2.4,0,.7.4,1.2,1.2,1.2,2.1v15.1c0,5.8,2.5,11.3,6.6,15.3,0,0,.1-.1.1-.1,8.4-8.3,22-8.4,30.5-.1,7.4,6.3,18.2,5.8,25.2-1,8.5-7.2,20.9-6.9,29,.7,2.7,2.7,6.2,4.3,9.9,4.6h110.4c.8,0,1.4-.7,1.4-1.5v-15.9c0-.4-.2-.8-.5-1.1-.3-.3-.7-.5-1.1-.5H113.2c-3.4,0-6.2-2.7-6.4-6.1v-9.4c0-.9.5-1.6,1.2-2,.7-.4,1.6-.5,2.3-.1,0,0,1.4.8,1.4.8,5.5,1.9,11.8-.2,15.2-5,3.4-4.9,3.3-11.4-.4-16.1l-.6-.7h.9c7.3.4,13.7-5.3,14.1-12.6.4-7.3-5.2-13.7-12.5-14.2h-1.1c0,0,.8-.7.8-.7,3.7-3.1,5.5-8,4.6-12.8-.9-4.8-4.3-8.7-8.9-10.3-4.6-1.6-9.7-.5-13.3,2.7l-.9.8.2-1.2c.8-5.2-1.6-10.4-6-13.3-4.4-2.8-10.1-2.8-14.6,0Z"/>
    <path class="cls-2" d="M108.1,135.1c-4.8,0-9.5,2.1-12.8,5.7-3.3,3.2-7.8,5-12.4,4.9-4.6,0-9-2.1-12.1-5.4-6.9-6.6-17.9-6.8-25.1-.5h0c-2.5,2.3-5.5,4.1-8.8,5.1-5.1,1.8-10.8.6-14.8-3-.5-.5-.9-1.1-1.2-1.7-.3-.7-1-1.1-1.8-.9-.7.1-1.3.8-1.3,1.5v13.8c1.9,5.1,6.4,9,11.8,10,5.4,1,11.1-.9,14.7-5,7.6-7.2,19.5-7.3,27.1,0,3.2,3.4,7.6,5.3,12.2,5.2,4.6,0,9-2.2,12-5.7,7-6.3,17.7-6.5,24.9-.5,8.1,7.9,20.6,8.3,29.1,1,6.9-6.8,17.8-7.3,25.2-1,3.3,3.5,7.7,5.7,12.5,6.2h110.3c.4,0,.8-.2,1.1-.5.3-.3.5-.7.5-1.1v-15.9c0-.4-.2-.8-.5-1.1-.3-.3-.7-.5-1.1-.5h-105.5c-3,0-5.9-.2-8.8-.8-2.9-.9-5.7-2.5-7.9-4.6-7-6.9-18.3-6.9-25.3,0-8.5,7.2-20.7,7.2-29.2,0-3.4-3.4-8.2-5.3-13-5.2Z"/>
    <path class="cls-3" d="M226.6,5.9l-69.7,69.7c-.4.4-.6,1.1-.3,1.7.2.6.8,1,1.4,1h16c.9,0,1.7.5,2.1,1.3.4.8.4,1.7-.1,2.5,0,0-24.1,34.9-24.1,34.9-.3.5-.4,1.1,0,1.6.3.5.8.8,1.4.8h144.6c.9,0,1.6-.7,1.6-1.6v-15.9c0-.9-.7-1.6-1.6-1.6h-104.3c-.9,0-1.7-.5-2.1-1.2-.4-.8-.4-1.7,0-2.4,0,0,18.5-31.3,18.5-31.3.3-.5.3-1.1,0-1.6-.3-.5-.8-.8-1.4-.8h-11c-.9,0-1.7-.5-2.1-1.3-.4-.8-.4-1.7.1-2.5L229,7.8c.4-.7.3-1.6-.3-2.1-.6-.5-1.5-.5-2.1.1Z"/>
    <path class="cls-2" d="M707,147.3v15.9c0,.9.7,1.6,1.6,1.6h123.6c.9,0,1.6-.7,1.6-1.6v-15.9c0-.9-.7-1.6-1.6-1.6h-123.6c-.9,0-1.6.7-1.6,1.6Z"/>
    <path class="cls-4" d="M708.5,123.1h123.6c.9,0,1.6.7,1.6,1.6v15.9c0,.9-.7,1.6-1.6,1.6h-123.6c-.9,0-1.6-.7-1.6-1.6v-15.9c0-.9.7-1.6,1.6-1.6Z"/>
    <path class="cls-3" d="M707,101.9v15.9c0,.9.7,1.6,1.6,1.6h123.6c.9,0,1.6-.7,1.6-1.6v-15.9c0-.9-.7-1.6-1.6-1.6h-123.6c-.9,0-1.6.7-1.6,1.6Z"/>
  </g>
  <g>
    <path class="cls-1" d="M308.4,36.3c-3.9-1.7-8.3-2.7-12.6-2.7s-9.8,1.9-9.8,8.6c0,10.8,27.2,6.2,27.2,27.1s-10.8,18.8-23.3,18.8-9.8-.9-15.9-2.4l1.2-11.2c4.3,2.3,9.2,3.8,14.1,3.8s11-2.4,11-8c0-11.8-27.2-6.9-27.2-27.5s10.8-19,21.7-19,10.3.7,14.9,2.2l-1.2,10.2Z"/>
    <path class="cls-1" d="M323.4,49.9h-8.8v-8.7h8.8v-9.2l11.9-3.8v13h10.6v8.7h-10.6v21.4c0,3.9,1.1,7.6,5.6,7.6s4.2-.4,5.4-1.2l.4,9.4c-2.5.7-5.3,1.1-8.8,1.1-9.3,0-14.5-5.8-14.5-14.9v-23.3Z"/>
    <path class="cls-1" d="M355.7,43.6c4.6-2.1,10.9-3.5,15.9-3.5,14,0,19.8,5.8,19.8,19.3v5.9c0,4.6,0,8.1.2,11.5,0,3.5.3,6.7.5,10.2h-10.5c-.4-2.4-.4-5.4-.5-6.9h-.2c-2.8,5.1-8.7,7.9-14.2,7.9-8.1,0-16-4.9-16-13.6s3.3-10.9,7.8-13.1c4.5-2.2,10.4-2.7,15.4-2.7h6.6c0-7.4-3.3-9.9-10.3-9.9s-10.1,2-14.2,5l-.4-10.2ZM369.7,79.3c3.6,0,6.5-1.6,8.4-4.1,2-2.6,2.5-5.9,2.5-9.4h-5.2c-5.3,0-13.3.9-13.3,7.9s3.3,5.6,7.6,5.6Z"/>
    <path class="cls-1" d="M433.2,81.8h-.2c-3.6,4.5-8.5,6.2-14.1,6.2-14.1,0-19.2-11.6-19.2-24.1s5.2-23.9,19.2-23.9,10.1,2,13.7,6.4h.2v-26.3h11.9v66.8h-11.6v-5.2ZM422.3,78.8c7.9,0,10.5-8.4,10.5-14.9s-3-14.6-10.7-14.6-9.9,8.5-9.9,14.6,2.2,14.9,10.1,14.9Z"/>
    <path class="cls-1" d="M460.5,49.9h-8.8v-8.7h8.8v-9.2l11.9-3.8v13h10.6v8.7h-10.6v21.4c0,3.9,1.1,7.6,5.6,7.6s4.2-.4,5.4-1.2l.4,9.4c-2.5.7-5.3,1.1-8.8,1.1-9.3,0-14.5-5.8-14.5-14.9v-23.3Z"/>
    <path class="cls-1" d="M485.6,41.2h12.6l10.1,33.9h.2l9.3-33.9h13.9l10,33.9h.2l9.5-33.9h11.4l-14.1,45.8h-14.1l-10-35h-.2l-9.8,35h-13.6l-15.5-45.8Z"/>
    <path class="cls-1" d="M604.5,84.4c-4.4,2.4-9.3,3.6-15.8,3.6-15.1,0-23.9-8.7-23.9-23.8s7-24.2,21.3-24.2,21.8,11.7,21.8,27.7h-31.7c.5,7.4,5.7,11.6,13.1,11.6s10.8-2.1,15.2-4.6v9.7ZM596.4,59.6c-.4-5.8-3-10.8-9.7-10.8s-10.1,4.6-10.6,10.8h20.3Z"/>
    <path class="cls-1" d="M615.2,41.2h10.6v10.4h.2c.5-4.3,5.4-11.5,12.5-11.5s2.4,0,3.6.4v12c-1.1-.6-3.2-1-5.3-1-9.7,0-9.7,12.1-9.7,18.7v16.8h-11.9v-45.8Z"/>
    <path class="cls-1" d="M649.4,20.2h11.9v39.2h.2l14.2-18.3h14.1l-17.1,20.5,19.2,25.4h-15.1l-15.3-22.2h-.2v22.2h-11.9V20.2Z"/>
    <path class="cls-1" d="M731.4,84.4c-4.4,2.4-9.3,3.6-15.8,3.6-15.1,0-23.9-8.7-23.9-23.8s7-24.2,21.3-24.2,21.8,11.7,21.8,27.7h-31.7c.5,7.4,5.7,11.6,13.1,11.6s10.8-2.1,15.2-4.6v9.7ZM723.4,59.6c-.4-5.8-3-10.8-9.7-10.8s-10.1,4.6-10.6,10.8h20.3Z"/>
    <path class="cls-1" d="M354.9,114.3c-3.9-1.7-8.3-2.7-12.6-2.7s-9.8,1.9-9.8,8.6c0,10.8,27.2,6.2,27.2,27.1s-10.8,18.8-23.3,18.8-9.8-.9-15.9-2.4l1.2-11.2c4.3,2.3,9.2,3.8,14.1,3.8s11-2.4,11-8c0-11.8-27.2-6.9-27.2-27.5s10.8-19,21.7-19,10.3.7,14.9,2.2l-1.2,10.2Z"/>
    <path class="cls-1" d="M371.5,121.6c4.6-2.1,10.9-3.5,15.9-3.5,14,0,19.8,5.8,19.8,19.3v5.9c0,4.6,0,8.1.2,11.5,0,3.5.3,6.7.5,10.2h-10.5c-.4-2.4-.4-5.4-.5-6.9h-.2c-2.8,5.1-8.7,7.9-14.2,7.9-8.1,0-16-4.9-16-13.6s3.3-10.9,7.8-13.1c4.5-2.2,10.4-2.7,15.4-2.7h6.6c0-7.4-3.3-9.9-10.3-9.9s-10.1,2-14.2,5l-.4-10.2ZM385.5,157.3c3.6,0,6.5-1.6,8.4-4.1,2-2.6,2.5-5.9,2.5-9.4h-5.2c-5.3,0-13.3.9-13.3,7.9s3.3,5.6,7.6,5.6Z"/>
    <path class="cls-1" d="M420.5,121.6c4.6-2.1,10.9-3.5,15.9-3.5,14,0,19.8,5.8,19.8,19.3v5.9c0,4.6,0,8.1.2,11.5,0,3.5.3,6.7.5,10.2h-10.5c-.4-2.4-.4-5.4-.5-6.9h-.2c-2.8,5.1-8.7,7.9-14.2,7.9-8.1,0-16-4.9-16-13.6s3.3-10.9,7.8-13.1c4.5-2.2,10.4-2.7,15.4-2.7h6.6c0-7.4-3.3-9.9-10.3-9.9s-10.1,2-14.2,5l-.4-10.2ZM434.5,157.3c3.6,0,6.5-1.6,8.4-4.1,2-2.6,2.5-5.9,2.5-9.4h-5.2c-5.3,0-13.3.9-13.3,7.9s3.3,5.6,7.6,5.6Z"/>
    <path class="cls-1" d="M467.8,119.2h10.6v10.4h.2c.5-4.3,5.4-11.5,12.5-11.5s2.4,0,3.6.4v12c-1.1-.6-3.2-1-5.3-1-9.7,0-9.7,12.1-9.7,18.7v16.8h-11.9v-45.8Z"/>
    <path class="cls-1" d="M502,98.2h11.9v66.8h-11.9v-66.8Z"/>
    <path class="cls-1" d="M547,118.1c13.6,0,24,9.2,24,24.3s-8.8,23.7-24,23.7-23.9-10.5-23.9-23.7,10.4-24.3,23.9-24.3ZM547,156.8c9.2,0,11.6-8.2,11.6-15.8s-3.7-13.6-11.6-13.6-11.5,6.8-11.5,13.6,2.4,15.8,11.5,15.8Z"/>
    <path class="cls-1" d="M622,165h-11.3v-6.2h-.2c-3.7,4.5-8.8,7.3-15,7.3-10.9,0-15.6-7.7-15.6-18v-28.9h11.9v24.5c0,5.6,0,13.2,7.7,13.2s10.5-9.3,10.5-15.2v-22.4h11.9v45.8Z"/>
    <path class="cls-1" d="M634.1,99.4h11.9v11.4h-11.9v-11.4ZM634.1,119.2h11.9v45.8h-11.9v-45.8Z"/>
    <path class="cls-1" d="M685.4,128.8c-3.6-1.2-6.3-2-10.7-2s-7,1.2-7,5.1c0,7.3,20.7,2.7,20.7,19.2s-9.5,15-19.2,15-9.2-.8-13.5-2l.7-9.8c3.7,1.9,7.7,3,11.7,3s7.8-1.2,7.8-5.6c0-9-20.7-2.8-20.7-19.4s8.6-14.2,18-14.2,9.3.9,13,1.7l-.8,9Z"/>
  </g>
</svg>